<svg width="41" height="40" viewBox="0 0 41 40" fill="none" xmlns="http://www.w3.org/2000/svg">
<path d="M40.5 19.9533C40.5085 23.9079 39.3417 27.7853 37.1538 31.0794C34.966 34.3735 31.8429 36.947 28.1879 38.4654C24.533 39.9837 20.509 40.3869 16.631 39.6235C12.7443 38.86 9.17513 36.9556 6.37812 34.1591C3.57252 31.3625 1.66781 27.8025 0.887049 23.9165C0.114868 20.0391 0.500959 16.0159 2.01958 12.3529C3.52963 8.69854 6.09498 5.56745 9.38962 3.37139C12.6671 1.17534 16.5366 0.00010549 20.4919 0.00010549C23.1173 -0.00847285 25.717 0.506228 28.1365 1.50989C30.5646 2.51356 32.7696 3.98046 34.6228 5.83338C36.4846 7.6863 37.9518 9.89093 38.9642 12.31C39.9766 14.7291 40.4914 17.3284 40.5 19.9533ZM22.7913 6.9314C22.0448 6.86278 21.2726 6.82846 20.4919 6.82846C19.7111 6.82846 18.9561 6.8542 18.2097 6.9314V17.5685H22.7998L22.7913 6.9314ZM33.3701 13.125C31.6971 12.576 29.9897 12.147 28.2566 11.8382V20.7683C28.2566 27.202 25.5196 30.5819 20.4919 30.5819C15.4641 30.5819 12.7272 27.202 12.7272 20.7683V11.8468C10.994 12.1556 9.28667 12.5845 7.61361 13.1335V20.8283C7.72514 24.1653 9.13223 27.3393 11.5346 29.664C13.9369 31.9887 17.1458 33.2841 20.4919 33.2841C23.838 33.2841 27.0468 31.9887 29.4492 29.664C31.8515 27.3393 33.2586 24.1739 33.3701 20.8283V13.125Z" fill="#7000FF"/>
</svg>
